<svg xmlns="http://www.w3.org/2000/svg">
    <defs>
        <symbol viewBox="0 -960 960 960" id="add">
            <path d="M440-440H200v-80h240v-240h80v240h240v80H520v240h-80v-240Z" />
        </symbol>
        <symbol viewBox="0 0 24 24" id="sidebar-close">
            <path
                d="M21 19V5c0-1.103-.897-2-2-2H5c-1.103 0-2 .897-2 2v14c0 1.103.897 2 2 2h14c1.103 0 2-.897 2-2zm-11 0V5h9l.002 14H10z" />
        </symbol>
        <symbol viewBox="0 0 24 24" id="sidebar-open">
            <path fill="none" d="M5 5h3v14H5zm5 0h9.002v14H10z" />
            <path
                d="M19 3H5c-1.103 0-2 .897-2 2v14c0 1.103.897 2 2 2h14c1.103 0 2-.897 2-2V5c0-1.103-.897-2-2-2zM5 5h3v14H5V5zm5 14V5h9l.002 14H10z" />
        </symbol>
        <symbol viewBox="0 -960 960 960" id="host">
            <path
                d="M160-280h640v-240H160v240Zm520-60q25 0 42.5-17.5T740-400q0-25-17.5-42.5T680-460q-25 0-42.5 17.5T620-400q0 25 17.5 42.5T680-340Zm200-260H767l-80-80H273l-80 80H80l137-137q11-11 25.5-17t30.5-6h414q16 0 30.5 6t25.5 17l137 137ZM160-200q-33 0-56.5-23.5T80-280v-320h800v320q0 33-23.5 56.5T800-200H160Z" />
        </symbol>
        <symbol viewBox="0 -960 960 960" id="explorer">
            <path
                d="M200-80q-33 0-56.5-23.5T120-160v-451q-18-11-29-28.5T80-680v-120q0-33 23.5-56.5T160-880h640q33 0 56.5 23.5T880-800v120q0 23-11 40.5T840-611v451q0 33-23.5 56.5T760-80H200Zm0-520v440h560v-440H200Zm-40-80h640v-120H160v120Zm200 280h240v-80H360v80Zm120 20Z" />
        </symbol>
        <symbol viewBox="0 -960 960 960" id="service">
            <path
                d="M440-183v-274L200-596v274l240 139Zm80 0 240-139v-274L520-457v274Zm-40-343 237-137-237-137-237 137 237 137ZM160-252q-19-11-29.5-29T120-321v-318q0-22 10.5-40t29.5-29l280-161q19-11 40-11t40 11l280 161q19 11 29.5 29t10.5 40v318q0 22-10.5 40T800-252L520-91q-19 11-40 11t-40-11L160-252Zm320-228Z" />
        </symbol>
        <symbol viewBox="0 -960 960 960" id="settings">
            <path
                d="m370-80-16-128q-13-5-24.5-12T307-235l-119 50L78-375l103-78q-1-7-1-13.5v-27q0-6.5 1-13.5L78-585l110-190 119 50q11-8 23-15t24-12l16-128h220l16 128q13 5 24.5 12t22.5 15l119-50 110 190-103 78q1 7 1 13.5v27q0 6.5-2 13.5l103 78-110 190-118-50q-11 8-23 15t-24 12L590-80H370Zm70-80h79l14-106q31-8 57.5-23.5T639-327l99 41 39-68-86-65q5-14 7-29.5t2-31.5q0-16-2-31.5t-7-29.5l86-65-39-68-99 42q-22-23-48.5-38.5T533-694l-13-106h-79l-14 106q-31 8-57.5 23.5T321-633l-99-41-39 68 86 64q-5 15-7 30t-2 32q0 16 2 31t7 30l-86 65 39 68 99-42q22 23 48.5 38.5T427-266l13 106Zm42-180q58 0 99-41t41-99q0-58-41-99t-99-41q-59 0-99.5 41T342-480q0 58 40.5 99t99.5 41Zm-2-140Z" />
        </symbol>
        <symbol viewBox="0 -960 960 960" id="home">
            <path
                d="M240-200h120v-240h240v240h120v-360L480-740 240-560v360Zm-80 80v-480l320-240 320 240v480H520v-240h-80v240H160Zm320-350Z" />
        </symbol>
    </defs>
</svg>